<svg width="163" height="36" viewBox="0 0 163 36" fill="none" xmlns="http://www.w3.org/2000/svg">
<g clip-path="url(#clip0_2009_1650)">
<path d="M162.507 8.07434H153.243L159.015 1.23238C159.261 0.924009 159.035 0.5 158.625 0.5H145.642C145.498 0.5 145.354 0.557819 145.252 0.673458L141.308 5.39537C141.061 5.70374 141.287 6.12775 141.698 6.12775H149.833L144.163 12.9697C143.917 13.2781 144.143 13.7021 144.553 13.7021H153.941V18.4047C153.941 18.7902 154.455 18.9444 154.701 18.6553L162.897 8.82599C163.144 8.51762 162.918 8.09361 162.507 8.09361V8.07434Z" fill="#8A84D8"/>
<path d="M19.0423 11.1387V35.0373H14.3998V33.0137C13.0235 34.6712 11.1337 35.4999 8.73028 35.4999C6.32687 35.4999 4.19052 34.6712 2.52662 32.9944C0.862726 31.3176 0.0205078 29.2361 0.0205078 26.7692C0.0205078 24.3022 0.862726 22.1629 2.52662 20.5054C4.19052 18.8479 6.26525 18.0192 8.73028 18.0192C11.1953 18.0192 13.0441 18.8479 14.3998 20.4861V11.1579H19.0423V11.1387ZM13.1057 30.2383C14.0712 29.3132 14.5436 28.1376 14.5436 26.7306C14.5436 25.3237 14.0712 24.1866 13.1057 23.2615C12.1402 22.3364 10.9488 21.8931 9.53141 21.8931C8.11402 21.8931 6.90205 22.3364 5.97766 23.2422C5.05328 24.148 4.58081 25.3044 4.58081 26.7306C4.58081 28.1568 5.05328 29.3518 5.97766 30.2576C6.90205 31.1827 8.09348 31.626 9.53141 31.626C10.9693 31.626 12.1402 31.1635 13.1057 30.2383Z" fill="#FFFFFF"/>
<path d="M25.1433 33.0909C23.3562 31.4912 22.4729 29.3711 22.4729 26.75C22.4729 24.1289 23.3357 22.1437 25.0406 20.4862C26.7456 18.8287 28.9641 18 31.7168 18C34.4694 18 36.7495 18.8095 38.3929 20.4284C40.0157 22.0474 40.8374 24.071 40.8374 26.5187C40.8374 27.1933 40.7963 27.6944 40.7346 28.0606H27.0127C27.177 29.1977 27.6905 30.1035 28.5533 30.7781C29.4161 31.4526 30.6075 31.7996 32.1481 31.7996C34.2023 31.7996 35.6197 31.0672 36.4414 29.6024L40.5909 30.7588C40.0157 32.0116 38.9886 33.1101 37.5096 34.0545C36.0306 34.9989 34.2229 35.4807 32.0865 35.4807C29.2517 35.4807 26.9305 34.6713 25.1639 33.0716L25.1433 33.0909ZM36.3387 25.3431C36.2154 24.3023 35.7635 23.4157 34.9213 22.7219C34.0996 22.0281 33.0109 21.6619 31.6757 21.6619C30.3404 21.6619 29.3339 22.0281 28.4917 22.7412C27.6495 23.4736 27.1565 24.3216 27.0127 25.3238H36.3387V25.3431Z" fill="#FFFFFF"/>
<path d="M61.0917 18.4817L53.7993 35.0373H48.6022L41.3098 18.4817H46.3631L51.211 30.2576L56.0384 18.4817H61.0711H61.0917Z" fill="#FFFFFF"/>
<path d="M65.3233 32.9945C63.5977 31.337 62.735 29.294 62.735 26.8271C62.735 24.3601 63.5977 22.375 65.3233 20.756C67.0488 19.1178 69.2057 18.3083 71.8145 18.3083C73.8892 18.3083 75.6353 18.8095 77.0938 19.8309C78.5522 20.8524 79.4766 21.9895 79.8669 23.2615L77.3403 23.9554C77.0322 23.0688 76.3748 22.2786 75.3477 21.6041C74.3206 20.9295 73.1497 20.5826 71.8145 20.5826C69.9041 20.5826 68.3635 21.1993 67.172 22.4328C65.9806 23.6663 65.3849 25.1503 65.3849 26.9042C65.3849 28.658 65.9806 30.1035 67.172 31.337C68.3635 32.5705 69.9041 33.1872 71.794 33.1872C73.1703 33.1872 74.3617 32.8596 75.3682 32.2235C76.3748 31.5875 77.0321 30.8166 77.3197 29.9108L79.8464 30.5275C79.4561 31.8188 78.5317 32.9559 77.0938 33.9774C75.6558 34.9796 73.8892 35.4807 71.794 35.4807C69.1851 35.4807 67.0282 34.652 65.3027 32.9945H65.3233Z" fill="#FFFFFF"/>
<path d="M98.0466 20.197C99.2996 21.4691 99.9159 23.2036 99.9159 25.4393V35.0373H97.2249V25.8055C97.2249 24.1866 96.7935 22.9338 95.9513 22.028C95.1091 21.1222 93.8971 20.6789 92.3359 20.6789C90.5899 20.6789 89.1725 21.2378 88.1043 22.3749C87.0361 23.512 86.4815 24.996 86.4815 26.827V35.0373H83.811V11.1387H86.4815V21.5654C87.1388 20.5825 88.0016 19.7923 89.1108 19.1948C90.2201 18.5974 91.4937 18.289 92.9316 18.289C95.0885 18.289 96.7935 18.925 98.0466 20.197Z" fill="#FFFFFF"/>
<path d="M106.366 32.9945C104.682 31.3562 103.86 29.294 103.86 26.8463C103.86 24.3986 104.702 22.375 106.366 20.7368C108.05 19.0985 110.125 18.2891 112.652 18.2891C115.692 18.2891 117.993 19.4069 119.533 21.6233V18.6745H122.204V34.9989H119.533V32.0308C118.013 34.305 115.713 35.4421 112.652 35.4421C110.146 35.4421 108.05 34.6134 106.366 32.9752V32.9945ZM117.685 31.3562C118.958 30.1613 119.595 28.658 119.595 26.8656C119.595 25.0732 118.958 23.5892 117.664 22.375C116.39 21.18 114.829 20.5826 113.022 20.5826C111.111 20.5826 109.55 21.18 108.338 22.3557C107.126 23.5314 106.51 25.0347 106.51 26.8656C106.51 28.6966 107.126 30.1806 108.338 31.3562C109.55 32.5512 111.132 33.1294 113.022 33.1294C114.911 33.1294 116.39 32.5319 117.664 31.337L117.685 31.3562Z" fill="#FFFFFF"/>
<path d="M137.713 34.5362C136.542 35.018 135.33 35.2493 134.077 35.2493C132.372 35.2493 131.098 34.7867 130.256 33.8616C129.414 32.9365 128.983 31.6645 128.983 30.0648V20.9872H125.532V18.6937H128.983V13.0659H131.653V18.6937H137.631V20.9872H131.653V30.0648C131.653 31.9921 132.598 32.9365 134.488 32.9365C135.351 32.9365 136.172 32.7438 136.973 32.3776L137.713 34.5362Z" fill="#FFFFFF"/>
</g>
<defs>
<clipPath id="clip0_2009_1650">
<rect width="163" height="35" fill="white" transform="translate(0 0.5)"/>
</clipPath>
</defs>
</svg>
